<?xml version="1.0" standalone="no"?>
<!DOCTYPE svg PUBLIC "-//W3C//DTD SVG 1.1//EN" "http://www.w3.org/Graphics/SVG/1.1/DTD/svg11.dtd">
<svg width="100%" height="100%" viewBox="0 0 325 94" version="1.1" xmlns="http://www.w3.org/2000/svg" xmlns:xlink="http://www.w3.org/1999/xlink" xml:space="preserve" style="fill-rule:evenodd;clip-rule:evenodd;stroke-linejoin:round;stroke-miterlimit:1.41421;">
    <g transform="matrix(1,0,0,1,-140,-433)">
        <g>
            <g id="path12015" transform="matrix(0.718059,0,0,0.493355,22.242,172.427)">
                <path d="M615.734,658.303C615.734,690.355 513.794,716.73 389.911,716.73C266.028,716.73 164.088,690.355 164.088,658.303C164.088,626.251 266.028,599.876 389.911,599.876C513.794,599.876 615.734,626.251 615.734,658.303Z" style="fill:rgb(83,42,12);fill-rule:nonzero;"/>
            </g>
            <g id="path12017" transform="matrix(0.330078,0,0,0.56166,175.83,103.188)">
                <path d="M611.137,658.303C611.137,696.987 511.272,728.819 389.911,728.819C268.55,728.819 168.685,696.987 168.685,658.303C168.685,658.303 168.685,658.303 168.685,658.303C168.685,619.619 268.55,587.787 389.911,587.787C511.272,587.787 611.137,619.619 611.137,658.303L611.137,658.303Z" style="fill:rgb(83,42,12);fill-rule:nonzero;"/>
            </g>
            <path id="path12041" d="M238.202,456.611C233.781,463.646 229.705,470.681 229.727,477.716C279.677,496.203 329.627,496.121 379.577,479.512C379.965,471.746 376.535,464.991 372.457,458.407C327.705,470.575 282.954,472.519 238.202,456.611L238.202,456.611Z" style="fill:rgb(240,128,128);fill-rule:nonzero;"/>
            <g transform="matrix(0.469109,0.0838766,-0.0854412,0.460519,172.839,206.663)">
                <g id="g16411">
                    <g id="g6447">
                        <g id="g7189">
                            <g id="g6405" transform="matrix(0.358366,0,0,0.358366,493.975,332.564)">
                                <g id="path6397" transform="matrix(1,0,0,0.830601,33.7111,153.464)">
                                    <path d="M-117.989,511.579C-117.989,511.579 -117.989,511.579 -117.989,511.579C-117.989,558.583 -128.134,597.262 -140.463,597.262C-152.792,597.262 -162.937,558.583 -162.937,511.579C-162.937,511.579 -162.937,511.579 -162.937,511.579C-162.937,464.575 -152.792,425.897 -140.463,425.897C-128.134,425.897 -117.989,464.575 -117.989,511.579L-117.989,511.579Z" style="fill:rgb(255,255,240);fill-rule:nonzero;"/>
                                </g>
                                <g id="path6399" transform="matrix(1,0,0,0.830601,33.2646,-41.8076)">
                                    <path d="M-117.989,511.579C-117.989,511.579 -117.989,511.579 -117.989,511.579C-117.989,558.583 -128.134,597.262 -140.463,597.262C-152.792,597.262 -162.937,558.583 -162.937,511.579C-162.937,511.579 -162.937,511.579 -162.937,511.579C-162.937,464.575 -152.792,425.897 -140.463,425.897C-128.134,425.897 -117.989,464.575 -117.989,511.579L-117.989,511.579Z" style="fill:rgb(255,255,240);fill-rule:nonzero;"/>
                                </g>
                                <g id="path6401" transform="matrix(-0.035729,0.999362,-0.830071,-0.0296766,413.563,637.225)">
                                    <path d="M-117.989,511.579C-117.989,511.579 -117.989,511.579 -117.989,511.579C-117.989,558.583 -128.134,597.262 -140.463,597.262C-152.792,597.262 -162.937,558.583 -162.937,511.579C-162.937,511.579 -162.937,511.579 -162.937,511.579C-162.937,464.575 -152.792,425.897 -140.463,425.897C-128.134,425.897 -117.989,464.575 -117.989,511.579L-117.989,511.579Z" style="fill:rgb(255,255,240);fill-rule:nonzero;"/>
                                </g>
                                <g id="path6403" transform="matrix(-0.035729,0.999362,-0.830071,-0.0296766,215.658,635.559)">
                                    <path d="M-117.989,511.579C-117.989,511.579 -117.989,511.579 -117.989,511.579C-117.989,558.583 -128.134,597.262 -140.463,597.262C-152.792,597.262 -162.937,558.583 -162.937,511.579C-162.937,511.579 -162.937,511.579 -162.937,511.579C-162.937,464.575 -152.792,425.897 -140.463,425.897C-128.134,425.897 -117.989,464.575 -117.989,511.579L-117.989,511.579Z" style="fill:rgb(255,255,240);fill-rule:nonzero;"/>
                                </g>
                            </g>
                            <g id="g6411" transform="matrix(0.32666,0.324353,-0.324353,0.32666,646.743,383.265)">
                                <g id="path6413" transform="matrix(1,0,0,0.830601,33.7111,131.141)">
                                    <path d="M-117.989,511.579C-117.989,511.579 -117.989,511.579 -117.989,511.579C-117.989,558.583 -128.134,597.262 -140.463,597.262C-152.792,597.262 -162.937,558.583 -162.937,511.579C-162.937,511.579 -162.937,511.579 -162.937,511.579C-162.937,464.575 -152.792,425.897 -140.463,425.897C-128.134,425.897 -117.989,464.575 -117.989,511.579L-117.989,511.579Z" style="fill:rgb(255,255,240);fill-rule:nonzero;"/>
                                </g>
                                <g id="path6415" transform="matrix(1,0,0,0.830601,32.7747,-20.5592)">
                                    <path d="M-117.989,511.579C-117.989,511.579 -117.989,511.579 -117.989,511.579C-117.989,558.583 -128.134,597.262 -140.463,597.262C-152.792,597.262 -162.937,558.583 -162.937,511.579C-162.937,511.579 -162.937,511.579 -162.937,511.579C-162.937,464.575 -152.792,425.897 -140.463,425.897C-128.134,425.897 -117.989,464.575 -117.989,511.579L-117.989,511.579Z" style="fill:rgb(255,255,240);fill-rule:nonzero;"/>
                                </g>
                                <g id="path6417" transform="matrix(-0.035729,0.999362,-0.830071,-0.0296766,382.152,638.368)">
                                    <path d="M-117.989,511.579C-117.989,511.579 -117.989,511.579 -117.989,511.579C-117.989,558.583 -128.134,597.262 -140.463,597.262C-152.792,597.262 -162.937,558.583 -162.937,511.579C-162.937,511.579 -162.937,511.579 -162.937,511.579C-162.937,464.575 -152.792,425.897 -140.463,425.897C-128.134,425.897 -117.989,464.575 -117.989,511.579L-117.989,511.579Z" style="fill:rgb(255,255,240);fill-rule:nonzero;"/>
                                </g>
                                <g id="path6419" transform="matrix(-0.035729,0.999362,-0.830071,-0.0296766,243.562,635.559)">
                                    <path d="M-117.989,511.579C-117.989,511.579 -117.989,511.579 -117.989,511.579C-117.989,558.583 -128.134,597.262 -140.463,597.262C-152.792,597.262 -162.937,558.583 -162.937,511.579C-162.937,511.579 -162.937,511.579 -162.937,511.579C-162.937,464.575 -152.792,425.897 -140.463,425.897C-128.134,425.897 -117.989,464.575 -117.989,511.579L-117.989,511.579Z" style="fill:rgb(255,255,240);fill-rule:nonzero;"/>
                                </g>
                            </g>
                        </g>
                        <g id="path6435" transform="matrix(2.11364,0,0,2.11364,-322.587,-456.256)">
                            <path d="M375.439,454.441C375.439,454.443 375.439,454.445 375.439,454.447C375.439,458.443 372.151,461.731 368.155,461.731C364.159,461.731 360.871,458.443 360.871,454.447C360.871,454.445 360.871,454.443 360.871,454.441C360.871,454.439 360.871,454.437 360.871,454.436C360.871,450.44 364.159,447.152 368.155,447.152C372.151,447.152 375.439,450.44 375.439,454.436C375.439,454.437 375.439,454.439 375.439,454.441Z" style="fill:rgb(255,215,0);fill-rule:nonzero;"/>
                        </g>
                    </g>
                </g>
            </g>
        </g>
    </g>
</svg>
